<svg width="107" height="92" viewBox="0 0 107 92" fill="none" xmlns="http://www.w3.org/2000/svg">
<path d="M19.5409 38.3842C14.458 42.2513 11.1096 47.9708 10.2254 54.296L10.1904 54.5444C9.36038 60.9119 11.0766 67.3498 14.9661 72.4593C18.8556 77.5687 24.6043 80.9369 30.963 81.8321C40.9426 83.2375 50.1804 78.2473 55.0854 68.8126C55.638 67.7483 55.9272 66.5671 55.929 65.368C55.9308 64.1689 55.6451 62.9869 55.0958 61.921C54.5464 60.8551 53.7496 59.9365 52.7719 59.2421C51.7943 58.5478 50.6645 58.0979 49.4771 57.9304C48.4923 57.7917 47.6029 57.2674 47.0045 56.473C46.4062 55.6785 46.148 54.6789 46.2867 53.6941L47.7971 42.9694C48.0425 41.2859 47.7047 39.5691 46.8399 38.104C45.975 36.639 44.6351 35.5137 43.0426 34.9152C41.2738 34.2429 39.433 33.7779 37.5572 33.5297C34.3823 33.1067 31.1551 33.3179 28.0625 34.1512C24.9699 34.9845 22.0734 36.4233 19.5409 38.3842ZM41.7144 38.4299C42.5076 38.7297 43.1747 39.2912 43.6055 40.0215C44.0363 40.7518 44.205 41.6073 44.0837 42.4465L42.5734 53.1711C42.296 55.1408 42.8124 57.14 44.009 58.7289C45.2057 60.3179 46.9845 61.3663 48.9542 61.6437C49.5472 61.7281 50.1113 61.9533 50.5994 62.3005C51.0875 62.6477 51.4853 63.1068 51.7596 63.6393C52.0339 64.1718 52.1766 64.7622 52.1758 65.3612C52.175 65.9602 52.0308 66.5502 51.7552 67.082C47.6083 75.0661 39.841 79.2954 31.486 78.1187C26.1057 77.3613 21.2416 74.5114 17.9504 70.1883C14.6593 65.8652 13.207 60.418 13.909 55.0302L13.9384 54.8213C14.717 49.4441 17.5778 44.5883 21.904 41.3012C26.2301 38.014 31.6748 36.5589 37.0641 37.2496C38.6545 37.4595 40.2155 37.8524 41.7157 38.4207L41.7144 38.4299ZM22.686 53.2106C23.2368 53.2882 23.7523 53.5274 24.1672 53.8979C24.5821 54.2684 24.8778 54.7536 25.0169 55.2922C25.156 55.8308 25.1323 56.3985 24.9488 56.9237C24.7652 57.4488 24.4301 57.9076 23.9858 58.2423C23.5414 58.5769 23.0078 58.7723 22.4524 58.8037C21.8971 58.835 21.3449 58.701 20.8657 58.4186C20.3864 58.1361 20.0018 57.7179 19.7602 57.2168C19.5187 56.7157 19.4312 56.1543 19.5088 55.6034C19.6128 54.8648 20.006 54.1977 20.6018 53.749C21.1977 53.3003 21.9474 53.1066 22.686 53.2106ZM26.8179 64.2068C27.3687 64.2844 27.8842 64.5235 28.2991 64.8941C28.714 65.2646 29.0097 65.7498 29.1488 66.2884C29.2879 66.827 29.2642 67.3947 29.0807 67.9198C28.8972 68.4449 28.562 68.9038 28.1177 69.2384C27.6733 69.5731 27.1397 69.7685 26.5844 69.7998C26.029 69.8312 25.4768 69.6972 24.9976 69.4147C24.5184 69.1323 24.1337 68.7141 23.8921 68.213C23.6506 67.7119 23.5631 67.1504 23.6407 66.5996C23.7447 65.861 24.1379 65.1939 24.7337 64.7452C25.3296 64.2964 26.0793 64.1028 26.8179 64.2068ZM39.8147 66.0371C40.3655 66.1147 40.881 66.3539 41.2958 66.7244C41.7107 67.0949 42.0064 67.5801 42.1456 68.1187C42.2847 68.6573 42.261 69.225 42.0774 69.7502C41.8939 70.2753 41.5588 70.7341 41.1144 71.0688C40.6701 71.4034 40.1365 71.5988 39.5811 71.6302C39.0257 71.6615 38.4735 71.5275 37.9943 71.2451C37.5151 70.9626 37.1304 70.5444 36.8889 70.0433C36.6474 69.5422 36.5599 68.9808 36.6374 68.4299C36.7415 67.6913 37.1346 67.0242 37.7305 66.5755C38.3263 66.1268 39.076 65.9331 39.8147 66.0371ZM29.6942 43.7833C30.245 43.8609 30.7604 44.1001 31.1753 44.4706C31.5902 44.8411 31.8859 45.3263 32.0251 45.8649C32.1642 46.4035 32.1405 46.9712 31.9569 47.4964C31.7734 48.0215 31.4383 48.4803 30.9939 48.815C30.5496 49.1496 30.016 49.345 29.4606 49.3764C28.9052 49.4077 28.353 49.2737 27.8738 48.9913C27.3946 48.7088 27.0099 48.2906 26.7684 47.7895C26.5269 47.2884 26.4394 46.727 26.5169 46.1761C26.621 45.4375 27.0141 44.7704 27.61 44.3217C28.2058 43.873 28.9555 43.6793 29.6942 43.7833Z" fill="black"/>
<path d="M99.9659 9.07097C99.9659 8.49698 99.7354 7.9465 99.3252 7.54063C98.9149 7.13475 98.3585 6.90674 97.7784 6.90674C85.7253 6.90674 73.3577 20.3547 66.4889 29.2605C64.0358 28.5172 61.4407 28.3535 58.9121 28.7824C56.3834 29.2114 53.9917 30.2211 51.929 31.7304C49.8663 33.2397 48.1901 35.2066 47.0351 37.4731C45.88 39.7396 45.2784 42.2425 45.2784 44.7807C45.2784 53.1347 39.9354 56.8815 39.6811 57.0546C39.2931 57.3139 38.9993 57.6894 38.8431 58.1261C38.6869 58.5628 38.6764 59.0376 38.8132 59.4806C38.9501 59.9236 39.2269 60.3115 39.6032 60.5873C39.9794 60.863 40.4352 61.0121 40.9034 61.0125H61.6846C64.2502 61.0125 66.78 60.4172 69.0708 59.2745C71.3617 58.1317 73.3497 56.4734 74.8753 54.4326C76.4009 52.3918 77.4214 50.0256 77.855 47.5238C78.2885 45.022 78.123 42.4545 77.3717 40.0275C86.376 33.2319 99.9659 20.9959 99.9659 9.07097ZM61.6846 56.684H45.9975C47.8432 54.0896 49.6534 50.1697 49.6534 44.7807C49.6534 42.4265 50.359 40.1251 51.681 38.1676C53.003 36.2102 54.882 34.6845 57.0805 33.7836C59.2789 32.8826 61.698 32.6469 64.0318 33.1062C66.3656 33.5655 68.5094 34.6992 70.192 36.3639C71.8746 38.0286 73.0205 40.1495 73.4847 42.4585C73.9489 44.7675 73.7107 47.1609 72.8 49.3359C71.8894 51.511 70.3474 53.37 68.3688 54.6779C66.3903 55.9859 64.0642 56.684 61.6846 56.684ZM70.5495 31.1326C71.4864 29.9314 72.4061 28.7997 73.3084 27.7374C75.5171 29.2137 77.419 31.0954 78.9112 33.2806C77.8357 34.1715 76.6918 35.0814 75.4795 36.0102C74.2048 34.0565 72.5242 32.3937 70.5495 31.1326ZM82.2253 30.4076C80.5738 28.1021 78.5399 26.0898 76.2096 24.4559C84.8995 15.1146 91.4538 12.2821 95.3229 11.4949C94.5436 15.3256 91.667 21.8102 82.2253 30.4076Z" fill="black"/>
</svg>
